#!OML:ASF X:\für Bonn\!DataBase\2005_08_10_Bjorn_Final\c3d\bjorn.ASF
:FULLY-SPECIFIED
:DEGREES
94
root -9.04365 18.427 0.0135899 406.727 95.3971 407.657
lowerback 2.93845 -0.586746 4.37201
upperback 15.4924 -0.062392 0.880246
thorax 15.4547 0.894896 -1.32414
lowerneck 10.8275 -3.93251 -1.6893
upperneck -6.80319 -5.08741 4.6363
head -4.02243 -2.70206 2.21498
rclavicle -1.98785e-016 1.2921e-015
rhumerus -24.9661 -20.9974 -82.4722
rradius 41.473
rwrist 4.78906
rhand -8.00556 14.8961
rfingers 7.12502
rthumb 17.9035 -14.2998
lclavicle -1.98785e-016 1.2921e-015
lhumerus -21.516 -3.20797 80.2739
lradius 48.9445
lwrist -12.3793
lhand -40.9701 -12.4807
lfingers 7.12502
lthumb -13.9028 17.0345
rfemur 6.49399 0.792117 20.1662
rtibia 29.1406
rfoot -27.3752 10.5016
rtoes -21.6069
lfemur -31.5796 4.88108 -6.62925
ltibia 31.9627
lfoot 5.83076 -6.43175
ltoes -13.1446
95
root -8.96143 18.4301 -0.0339072 406.565 95.3885 407.337
lowerback 2.95278 -0.544818 3.9834
upperback 15.4126 0.0168398 0.791775
thorax 15.3404 0.881756 -1.20401
lowerneck 10.8755 -4.25915 -1.8195
upperneck -7.13545 -5.45542 5.50801
head -3.68976 -2.94332 2.31137
rclavicle -6.8705e-015 -2.5755e-014
rhumerus -25.0791 -20.9149 -82.4244
rradius 41.248
rwrist 4.76929
rhand -8.02458 14.9252
rfingers 7.12502
rthumb 17.8852 -14.2723
lclavicle -6.8705e-015 -2.5755e-014
lhumerus -21.3953 -3.26092 80.1121
lradius 48.8368
lwrist -12.1188
lhand -41.0087 -12.4414
lfingers 7.12502
lthumb -13.94 17.0713
rfemur 6.62325 1.03534 20.0424
rtibia 29.1023
rfoot -27.1259 10.4322
rtoes -22.0824
lfemur -31.7448 5.04477 -6.83961
ltibia 32.4604
lfoot 5.24393 -6.70703
ltoes -13.4545
96
root -8.87833 18.4358 -0.079813 406.206 95.3963 406.852
lowerback 3.00439 -0.499238 3.60343
upperback 15.3455 0.106204 0.690321
thorax 15.2197 0.877734 -1.10159
lowerneck 10.8996 -4.5945 -1.97618
upperneck -7.10896 -5.85609 6.28162
head -3.64204 -3.17824 2.59371
rclavicle -3.56818e-014 -1.29707e-014
rhumerus -25.1906 -20.8879 -82.405
rradius 41.0625
rwrist 4.73955
rhand -7.97548 14.9096
rfingers 7.12502
rthumb 17.9324 -14.2837
lclavicle -3.56818e-014 -1.29707e-014
lhumerus -21.2058 -3.35996 79.903
lradius 48.7013
lwrist -11.8342
lhand -41.0408 -12.3722
lfingers 7.12502
lthumb -13.9709 17.1383
rfemur 6.74319 1.29908 19.9489
rtibia 29.0794
rfoot -26.7942 10.3113
rtoes -22.5762
lfemur -31.8605 5.14442 -7.02321
ltibia 32.9528
lfoot 4.68437 -6.92051
ltoes -13.6569
97
root -8.79397 18.4404 -0.128244 405.693 95.3891 406.225
lowerback 3.02439 -0.460081 3.22058
upperback 15.298 0.187187 0.582939
thorax 15.1441 0.87196 -1.00374
lowerneck 10.9053 -4.92225 -2.12158
upperneck -7.08193 -6.2487 7.02267
head -3.58916 -3.40728 2.86247
rclavicle 1.49089e-016 6.95746e-015
rhumerus -25.2548 -20.7983 -82.3998
rradius 40.8422
rwrist 4.71446
rhand -8.01577 14.887
rfingers 7.12502
rthumb 17.8937 -14.3099
lclavicle 1.49089e-016 6.95746e-015
lhumerus -20.9947 -3.39822 79.6883
lradius 48.5652
lwrist -11.6433
lhand -41.066 -12.2962
lfingers 7.12502
lthumb -13.9952 17.2127
rfemur 6.86951 1.54782 19.8104
rtibia 29.0818
rfoot -26.4546 10.2505
rtoes -23.0266
lfemur -31.961 5.24807 -7.23992
ltibia 33.4348
lfoot 4.0977 -7.15752
ltoes -13.8896
98
root -8.70914 18.4457 -0.176528 404.996 95.3993 405.423
lowerback 3.04966 -0.432596 2.81226
upperback 15.2562 0.252167 0.497128
thorax 15.0714 0.854146 -0.868912
lowerneck 10.9207 -5.2469 -2.30816
upperneck -7.0682 -6.64512 7.75071
head -3.53708 -3.63659 3.13368
rclavicle -2.88238e-015 8.74653e-015
rhumerus -25.2931 -20.6764 -82.3734
rradius 40.6107
rwrist 4.68276
rhand -8.09233 14.8194
rfingers 7.12502
rthumb 17.82 -14.3841
lclavicle -2.88238e-015 8.74653e-015
lhumerus -20.7768 -3.41712 79.5073
lradius 48.4372
lwrist -11.4094
lhand -41.1225 -12.4559
lfingers 7.12502
lthumb -14.0497 17.0493
rfemur 6.99024 1.76101 19.6769
rtibia 29.1285
rfoot -26.0808 10.1476
rtoes -23.6855
lfemur -32.0486 5.34684 -7.46338
ltibia 33.9003
lfoot 3.53223 -7.379
ltoes -14.2279
99
root -8.62307 18.451 -0.2251 404.447 95.3931 404.792
lowerback 3.08662 -0.396872 2.41188
upperback 15.2186 0.329517 0.404384
thorax 14.9978 0.84472 -0.744757
lowerneck 10.9457 -5.56669 -2.50907
upperneck -7.03088 -7.03755 8.49545
head -3.47482 -3.86401 3.41079
rclavicle -4.07509e-015 -1.39149e-014
rhumerus -25.3743 -20.6765 -82.3403
rradius 40.4185
rwrist 4.72106
rhand -8.11328 14.8098
rfingers 7.12502
rthumb 17.7998 -14.3955
lclavicle -4.07509e-015 -1.39149e-014
lhumerus -20.5222 -3.43482 79.2999
lradius 48.2569
lwrist -11.2671
lhand -41.08 -12.5146
lfingers 7.12502
lthumb -14.0087 16.9933
rfemur 7.10333 1.97483 19.5462
rtibia 29.2333
rfoot -25.7494 9.93949
rtoes -24.7827
lfemur -32.0863 5.43694 -7.67121
ltibia 34.3433
lfoot 2.99154 -7.60484
ltoes -14.4704
100
root -8.53542 18.4575 -0.274769 403.56 95.391 403.835
lowerback 3.11148 -0.363342 2.00788
upperback 15.1909 0.405924 0.300753
thorax 14.9448 0.836554 -0.630144
lowerneck 10.9676 -5.89828 -2.66623
upperneck -7.01089 -7.44409 9.1906
head -3.41614 -4.0971 3.66598
rclavicle 4.17448e-015 -5.1684e-015
rhumerus -25.4394 -20.7466 -82.318
rradius 40.2159
rwrist 4.82593
rhand -8.179 14.8343
rfingers 7.12502
rthumb 17.7366 -14.3768
lclavicle 4.17448e-015 -5.1684e-015
lhumerus -20.2745 -3.45585 79.0907
lradius 48.1329
lwrist -11.2108
lhand -41.0526 -12.4023
lfingers 7.12502
lthumb -13.9823 17.1075
rfemur 7.19688 2.14143 19.377
rtibia 29.4288
rfoot -25.3996 9.76672
rtoes -25.8743
lfemur -32.0896 5.4827 -7.90207
ltibia 34.7536
lfoot 2.428 -7.79712
ltoes -14.8334
101
root -8.44736 18.4682 -0.324276 402.597 95.3635 402.789
lowerback 3.12109 -0.330274 1.56933
upperback 15.1641 0.481682 0.205456
thorax 14.9024 0.823077 -0.486869
lowerneck 10.972 -6.22505 -2.92748
upperneck -6.96994 -7.85856 9.9346
head -3.33785 -4.33316 3.95018
rclavicle 3.97569e-016 -1.21259e-014
rhumerus -25.4949 -20.7484 -82.2703
rradius 40.0166
rwrist 4.86896
rhand -8.24724 14.8482
rfingers 7.12502
rthumb 17.6709 -14.3689
lclavicle 3.97569e-016 -1.21259e-014
lhumerus -20.0087 -3.51542 78.9044
lradius 47.9933
lwrist -11.1451
lhand -41.2356 -12.3479
lfingers 7.12502
lthumb -14.1587 17.1496
rfemur 7.22322 2.30026 19.1764
rtibia 29.7076
rfoot -25.0655 9.54522
rtoes -27.2322
lfemur -32.0824 5.56027 -8.16485
ltibia 35.1326
lfoot 1.90202 -8.01719
ltoes -14.9845
102
root -8.35679 18.4784 -0.373299 401.873 95.3466 401.994
lowerback 3.1206 -0.301366 1.12286
upperback 15.1495 0.551004 0.130891
thorax 14.8817 0.804529 -0.316173
lowerneck 10.9216 -6.53531 -3.20394
upperneck -6.88696 -8.2594 10.6584
head -3.23478 -4.55876 4.22488
rclavicle -3.29983e-014 -2.38542e-015
rhumerus -25.5221 -20.8103 -82.2242
rradius 39.7989
rwrist 4.99235
rhand -8.3135 14.8826
rfingers 7.12502
rthumb 17.6072 -14.3401
lclavicle -3.29983e-014 -2.38542e-015
lhumerus -19.7465 -3.45841 78.7436
lradius 47.8932
lwrist -11.1942
lhand -41.3342 -12.244
lfingers 7.12502
lthumb -14.2537 17.2469
rfemur 7.22761 2.43979 18.9985
rtibia 30.069
rfoot -24.7707 9.28801
rtoes -28.991
lfemur -32.0386 5.62236 -8.3903
ltibia 35.4868
lfoot 1.40824 -8.19335
ltoes -14.9698
103
root -8.26603 18.4889 -0.42331 401.32 95.3427 401.406
lowerback 3.14691 -0.265909 0.736933
upperback 15.1381 0.630318 0.0336327
thorax 14.8494 0.801394 -0.203369
lowerneck 10.9102 -6.86164 -3.34939
upperneck -6.80511 -8.67047 11.299
head -3.14322 -4.78887 4.45447
rclavicle 3.18055e-015 -1.98785e-015
rhumerus -25.593 -20.9173 -82.2071
rradius 39.6055
rwrist 5.15462
rhand -8.41408 14.9708
rfingers 7.12502
rthumb 17.5104 -14.2606
lclavicle 3.18055e-015 -1.98785e-015
lhumerus -19.4491 -3.41532 78.5591
lradius 47.744
lwrist -11.3122
lhand -41.4299 -12.2113
lfingers 7.12502
lthumb -14.3459 17.273
rfemur 7.23028 2.57948 18.8347
rtibia 30.4968
rfoot -24.4036 9.13767
rtoes -30.4063
lfemur -31.9481 5.7379 -8.60121
ltibia 35.8297
lfoot 0.904774 -8.42905
ltoes -15.2541
104
root -8.17478 18.4985 -0.472764 400.555 95.3268 400.628
lowerback 3.20129 -0.244484 0.295292
upperback 15.1385 0.693837 -0.0499566
thorax 14.8136 0.783319 -0.0459978
lowerneck 10.8114 -7.16947 -3.52153
upperneck -6.68922 -9.06805 11.9099
head -3.025 -5.00685 4.67174
rclavicle 5.96354e-016 -5.1684e-015
rhumerus -25.6268 -21.0194 -82.1881
rradius 39.3976
rwrist 5.32229
rhand -8.51024 15.0488
rfingers 7.12502
rthumb 17.4178 -14.1908
lclavicle 5.96354e-016 -5.1684e-015
lhumerus -19.1904 -3.34589 78.3922
lradius 47.6745
lwrist -11.3803
lhand -41.4816 -12.1452
lfingers 7.12502
lthumb -14.3957 17.3356
rfemur 7.22247 2.71185 18.6452
rtibia 30.9775
rfoot -23.9585 9.05604
rtoes -31.5528
lfemur -31.8315 5.84486 -8.83059
ltibia 36.1722
lfoot 0.43616 -8.66032
ltoes -15.1552
105
root -8.08212 18.5082 -0.522468 400.042 95.3157 400.102
lowerback 3.24409 -0.208717 -0.139849
upperback 15.128 0.771761 -0.109827
thorax 14.7714 0.770441 0.135248
lowerneck 10.6905 -7.48786 -3.6863
upperneck -6.49887 -9.49213 12.4564
head -2.8789 -5.23201 4.86337
rclavicle -1.76918e-014 -1.59028e-014
rhumerus -25.7154 -21.151 -82.1233
rradius 39.2384
rwrist 5.46237
rhand -8.60614 15.1345
rfingers 7.12502
rthumb 17.3255 -14.1133
lclavicle -1.76918e-014 -1.59028e-014
lhumerus -18.9339 -3.32982 78.2634
lradius 47.6171
lwrist -11.4324
lhand -41.4635 -12.1164
lfingers 7.12502
lthumb -14.3783 17.3656
rfemur 7.19119 2.825 18.4695
rtibia 31.4945
rfoot -23.5234 8.96999
rtoes -32.8881
lfemur -31.7004 5.99707 -9.04051
ltibia 36.5134
lfoot -0.0100745 -8.94201
ltoes -15.1298
106
root -7.9888 18.5184 -0.570607 399.73 95.3185 399.79
lowerback 3.27206 -0.181201 -0.61361
upperback 15.1342 0.836518 -0.121365
thorax 14.759 0.742599 0.390876
lowerneck 10.5241 -7.78303 -3.89095
upperneck -6.28365 -9.89945 12.9569
head -2.71664 -5.44321 5.04108
rclavicle -7.55382e-015 8.74653e-015
rhumerus -25.7644 -21.187 -82.0405
rradius 39.064
rwrist 5.54178
rhand -8.76833 15.2405
rfingers 7.12502
rthumb 17.1694 -14.0209
lclavicle -7.55382e-015 8.74653e-015
lhumerus -18.7065 -3.23231 78.1928
lradius 47.6251
lwrist -11.5444
lhand -41.4645 -12.0544
lfingers 7.12502
lthumb -14.3792 17.4276
rfemur 7.14519 2.95025 18.33
rtibia 32.0565
rfoot -23.0151 8.91385
rtoes -33.9391
lfemur -31.5602 6.18746 -9.22239
ltibia 36.8522
lfoot -0.432647 -9.24288
ltoes -14.8861
107
root -7.89587 18.5279 -0.619773 399.446 95.3121 399.551
lowerback 3.35785 -0.144937 -1.03774
upperback 15.1549 0.91825 -0.174887
thorax 14.7295 0.734783 0.573555
lowerneck 10.3632 -8.08825 -3.99154
upperneck -6.10283 -10.3053 13.4392
head -2.56953 -5.65513 5.19649
rclavicle 3.18055e-015 -1.39149e-014
rhumerus -25.7753 -21.372 -82.0124
rradius 38.841
rwrist 5.72598
rhand -8.87417 15.3579
rfingers 7.12502
rthumb 17.0676 -13.9124
lclavicle 3.18055e-015 -1.39149e-014
lhumerus -18.4319 -3.24631 78.0524
lradius 47.6427
lwrist -11.551
lhand -41.4498 -11.9922
lfingers 7.12502
lthumb -14.3651 17.4908
rfemur 7.09987 3.07103 18.1775
rtibia 32.6687
rfoot -22.4529 8.92779
rtoes -34.8905
lfemur -31.3544 6.37778 -9.40056
ltibia 37.1715
lfoot -0.810125 -9.5517
ltoes -14.7278
